<svg width="181" height="196" viewBox="0 0 181 196" fill="none" xmlns="http://www.w3.org/2000/svg">
<rect x="1.83712" y="56.5123" width="145.585" height="141.496" rx="70.7479" transform="rotate(-15 1.83712 56.5123)" stroke="black" stroke-width="3"/>
<path d="M49.9419 43.3727C51.5067 42.9815 52.9684 42.0117 54.4958 41.4563C57.8211 40.2471 61.207 39.2169 64.4954 37.9081C67.2372 36.8168 69.9164 35.76 72.7303 34.8721C73.7175 34.5607 74.6264 34.0756 75.5575 33.8096" stroke="black" stroke-width="3" stroke-linecap="round"/>
<path d="M62.3112 38.4732C55.0297 29.4672 46.1826 21.4665 36.4307 15.2607" stroke="black" stroke-width="3" stroke-linecap="round"/>
<path d="M20.7764 3.10693C21.9044 4.13144 23.0285 5.10131 24.3267 5.90417C25.9784 6.92564 27.9189 7.42263 29.7675 7.96367C32.3292 8.71344 34.8764 8.63992 37.5137 8.63992" stroke="black" stroke-width="3" stroke-linecap="round"/>
<path d="M24.6489 15.4175C25.1328 13.1594 26.7064 11.1486 27.6844 9.07761C28.8598 6.5885 30.6184 4.44688 31.8418 2" stroke="black" stroke-width="3" stroke-linecap="round"/>
</svg>
